<svg xmlns:inkscape="http://www.inkscape.org/namespaces/inkscape" xmlns:sodipodi="http://sodipodi.sourceforge.net/DTD/sodipodi-0.dtd" xmlns:xlink="http://www.w3.org/1999/xlink" xmlns="http://www.w3.org/2000/svg" xmlns:svg="http://www.w3.org/2000/svg" xmlns:rdf="http://www.w3.org/1999/02/22-rdf-syntax-ns#" xmlns:cc="http://creativecommons.org/ns#" xmlns:dc="http://purl.org/dc/elements/1.1/" width="81.373657mm" height="67.035568mm" viewBox="0 0 81.373657 67.035568" id="svg999" inkscape:version="1.2.2 (732a01da63, 2022-12-09, custom)" sodipodi:docname="logo.svg"><defs id="defs993"><linearGradient inkscape:collect="always" xlink:href="#linearGradient3527" id="linearGradient3531" x1="129.12611" y1="85.238838" x2="128.51192" y2="85.947548" gradientUnits="userSpaceOnUse" gradientTransform="translate(-45.308505,-12.706091)"></linearGradient><linearGradient inkscape:collect="always" id="linearGradient3527"><stop style="stop-color:#6e9cfe;stop-opacity:1;" offset="0" id="stop3523"></stop><stop style="stop-color:#6e9cfe;stop-opacity:0;" offset="1" id="stop3525"></stop></linearGradient><linearGradient inkscape:collect="always" xlink:href="#linearGradient3527" id="linearGradient3513" x1="124.18227" y1="84.967896" x2="122.93095" y2="86.857773" gradientUnits="userSpaceOnUse" gradientTransform="translate(-45.308505,-12.706091)"></linearGradient></defs><metadata></metadata><g inkscape:label="Camada 1" inkscape:groupmode="layer" id="layer1" transform="translate(-6.9381733,-8.4403308)"><g transform="translate(1.6907415,-24.848157)" id="g3822"><path sodipodi:nodetypes="ccccccc" inkscape:connector-curvature="0" id="path905" d="m 19.818056,61.131383 c 0.334087,3.786318 0.265834,9.273529 1.00226,11.358954 0.377936,3.334227 15.357614,7.529984 23.873378,7.951269 l 7.082641,-0.06682 c 9.489699,0.701083 18.216389,-3.55742 25.925139,-14.432555 0.18709,-3.211695 0.0259,-4.854979 -0.0167,-7.032529 -7.0821,-17.504019 -52.391787,-11.145517 -57.866718,2.221681 z" style="fill:#ff5599;stroke:#000000;stroke-width:0.264583px;stroke-linecap:butt;stroke-linejoin:miter;stroke-opacity:1"></path><path sodipodi:nodetypes="ccccccccccccccccccccc" inkscape:connector-curvature="0" id="path903" d="m 19.770809,61.131383 c 0.41485,-2.783856 0.765275,-6.083106 1.00226,-10.289878 -0.357708,-4.355296 1.266737,-11.112511 3.608139,-16.30344 4.605592,0.552055 10.517624,3.773018 15.03391,8.753075 5.566867,-0.332511 11.232526,-0.538003 19.243408,2.271792 0.0623,-1.934377 0.97907,-5.884346 10.690778,-12.093945 2.55729,3.733651 5.18684,7.134907 6.88219,14.83346 l 1.40317,7.88445 c 0.85187,5.446065 -3.11143,8.064539 -3.47451,0.668174 -0.46021,-5.610589 -3.33363,-3.252203 -2.80633,0.534538 1.9094,12.600668 -4.58328,12.251547 -4.40994,1.870887 1.71063,-5.789931 -4.07674,-6.676382 -3.60814,-1.737252 0.39007,2.790328 -1.76046,7.174035 -3.741778,1.603616 -0.6376,-2.832122 -2.56953,-2.533895 -2.53906,1.870887 2.16058,12.762026 -2.80845,11.445545 -3.67495,-0.601355 0.47831,-3.696833 -4.846173,-6.537153 -6.013569,-1.670437 -0.510509,2.959369 -2.002175,3.543711 -3.741772,0.267272 -1.3485,-2.119949 -3.005605,-1.949702 -3.140416,3.324164 0.573404,10.77764 -7.993254,8.353248 -8.218538,-1.653729 0.33338,-10.701514 -2.966479,-8.581362 -5.746297,-3.407687 -1.857454,2.717491 -3.061632,7.81053 -6.748555,3.875408 z" style="fill:#55ddff;stroke:#000000;stroke-width:0.264583px;stroke-linecap:butt;stroke-linejoin:miter;stroke-opacity:1"></path><path sodipodi:nodetypes="cccc" inkscape:connector-curvature="0" id="path962" d="m 26.505579,48.905876 c -0.418818,-2.629844 -0.726309,-5.337616 0.09449,-8.835191 1.830147,0.593591 3.431774,0.109874 6.094867,4.630208 -3.105902,1.532009 -6.049777,3.043764 -6.189357,4.204983 z" style="fill:#ffaaee;stroke:#000000;stroke-width:0.264583px;stroke-linecap:butt;stroke-linejoin:miter;stroke-opacity:1"></path><path sodipodi:nodetypes="cccc" inkscape:connector-curvature="0" id="path967" d="m 62.224324,45.787574 c 1.77639,-3.207715 3.89343,-5.847685 6.4256,-7.79576 1.3507,1.18221 2.46054,4.471881 3.30729,10.063618 -1.92815,-0.988214 -5.69054,-1.652738 -9.73289,-2.267858 z" style="fill:#ffaaee;fill-opacity:1;stroke:#000000;stroke-width:0.264583px;stroke-linecap:butt;stroke-linejoin:miter;stroke-opacity:1"></path><path sodipodi:nodetypes="ccc" inkscape:connector-curvature="0" id="path969" d="m 40.537944,43.283481 c -0.998129,8.237345 14.336852,5.60102 13.181922,0.850447 -4.206601,-0.851479 -8.840039,-1.250059 -13.181922,-0.850447 z" style="fill:#00ccff;stroke:#000000;stroke-width:0.264583px;stroke-linecap:butt;stroke-linejoin:miter;stroke-opacity:1"></path><path sodipodi:nodetypes="ccc" inkscape:connector-curvature="0" id="path977" d="m 42.19159,67.710192 c 1.224875,1.135864 2.510476,2.036418 4.724704,-0.661458 0.901405,2.593514 2.822912,2.219461 5.102677,0.803201" style="fill:none;stroke:#000000;stroke-width:0.264583px;stroke-linecap:butt;stroke-linejoin:miter;stroke-opacity:1"></path><ellipse cx="37.159782" cy="59.772686" rx="3.0982542" ry="4.0195708" id="path981" style="opacity:1;fill:#000000;fill-opacity:1;stroke:#000000;stroke-width:0.257435;stroke-opacity:1"></ellipse><ellipse transform="rotate(-20.195998)" ry="2.3018188" rx="1.8293484" cy="68.051888" cx="15.69402" id="path989" style="opacity:1;fill:#ffffff;fill-opacity:1;stroke:#000000;stroke-width:0.291154;stroke-opacity:1"></ellipse><ellipse style="opacity:1;fill:#ffffff;fill-opacity:1;stroke:#000000;stroke-width:0.130367;stroke-opacity:1" id="ellipse991" cx="-11.641268" cy="69.579269" rx="0.77494335" ry="1.0893968" transform="matrix(0.7391908,-0.67349608,0.63125503,0.77557533,0,0)"></ellipse><ellipse inkscape:transform-center-x="0.042665466" inkscape:transform-center-y="-0.084312542" transform="rotate(20.880252)" ry="1.2992932" rx="0.33072916" cy="41.860405" cx="53.292465" id="path993" style="opacity:1;fill:#ffffff;fill-opacity:1;stroke:#000000;stroke-width:0.264583;stroke-opacity:1"></ellipse><ellipse ry="0.8976934" rx="1.063058" cy="63.741451" cx="47.128906" id="path995" style="opacity:1;fill:#000000;fill-opacity:1;stroke:#000000;stroke-width:0.264583;stroke-opacity:1"></ellipse><path inkscape:original-d="M 46.349329,63.079984 C 45.672387,62.701743 44.995178,62.323768 44.317707,61.946056 43.294151,62.103301 42.2706,62.26077 41.246652,62.418525" inkscape:path-effect="#path-effect3728" inkscape:connector-curvature="0" id="path1009" d="m 46.349329,63.079984 c -0.677118,-0.377926 -1.354326,-0.755902 -2.204735,-0.866183 -0.850409,-0.11028 -1.87396,0.04719 -2.897942,0.204724" style="fill:none;stroke:#000000;stroke-width:0.264583px;stroke-linecap:butt;stroke-linejoin:miter;stroke-opacity:1"></path><path inkscape:original-d="M 46.14697,63.419878 C 45.802012,63.21916 45.456789,63.018709 45.111301,62.81852 43.891855,62.87395 42.672732,62.929618 41.45305,62.985565" inkscape:path-effect="#path-effect3725" inkscape:connector-curvature="0" id="path1013" d="m 46.14697,63.419878 c -0.34514,-0.200404 -0.690362,-0.400857 -1.472733,-0.473266 -0.78237,-0.07241 -2.001493,-0.01674 -3.221187,0.03895" style="fill:none;stroke:#000000;stroke-width:0.264583px;stroke-linecap:butt;stroke-linejoin:miter;stroke-opacity:1"></path><path inkscape:original-d="m 46.046744,63.837486 c -0.651204,-0.117195 -1.302674,-0.234125 -1.954409,-0.35079 -0.567864,0.189111 -1.135631,0.378367 -1.703842,0.567947 -0.322866,-0.117261 -0.645637,-0.234125 -0.968852,-0.350793" inkscape:path-effect="#path-effect3722" inkscape:connector-curvature="0" id="path1017" d="m 46.046744,63.837486 c -0.651258,-0.116892 -1.302728,-0.233822 -1.912474,-0.197671 -0.609746,0.03615 -1.177513,0.225407 -1.623136,0.261646 -0.445622,0.03624 -0.768393,-0.08063 -1.091493,-0.197611" style="fill:none;stroke:#000000;stroke-width:0.264583px;stroke-linecap:butt;stroke-linejoin:miter;stroke-opacity:1"></path><path inkscape:original-d="m 46.180379,64.23839 c -0.679045,0.09439 -1.358355,0.189051 -2.037929,0.283975 -0.395245,0.27269 -0.790408,0.54541 -1.186011,0.818512 -0.462243,-0.195299 -0.924041,-0.390032 -1.386459,-0.584652" inkscape:path-effect="#path-effect3719" inkscape:connector-curvature="0" id="path1021" d="m 46.180379,64.23839 c -0.679013,0.09462 -1.358324,0.189275 -1.895729,0.372999 -0.537406,0.183723 -0.93257,0.456441 -1.36158,0.495475 -0.429009,0.03903 -0.890807,-0.1557 -1.35309,-0.350639" style="fill:none;stroke:#000000;stroke-width:0.264583px;stroke-linecap:butt;stroke-linejoin:miter;stroke-opacity:1"></path><path style="fill:none;stroke:#000000;stroke-width:0.264583px;stroke-linecap:butt;stroke-linejoin:miter;stroke-opacity:1" d="m 47.889227,63.096688 c 0.677118,-0.377926 1.354326,-0.755902 2.204735,-0.866183 0.850409,-0.11028 1.87396,0.04719 2.897944,0.204724" id="path1025" inkscape:connector-curvature="0" inkscape:path-effect="#path-effect3716" inkscape:original-d="m 47.889227,63.096688 c 0.676942,-0.378241 1.354151,-0.756216 2.031622,-1.133928 1.023556,0.157245 2.047107,0.314714 3.071057,0.472469"></path><path style="fill:none;stroke:#000000;stroke-width:0.264583px;stroke-linecap:butt;stroke-linejoin:miter;stroke-opacity:1" d="m 48.091586,63.436582 c 0.34514,-0.200404 0.690362,-0.400857 1.472733,-0.473266 0.78237,-0.07241 2.001493,-0.01674 3.221187,0.03895" id="path1029" inkscape:connector-curvature="0" inkscape:path-effect="#path-effect3713" inkscape:original-d="m 48.091586,63.436582 c 0.344958,-0.200718 0.690181,-0.401169 1.035669,-0.601358 1.219446,0.05543 2.438569,0.111098 3.658251,0.167045"></path><path style="fill:none;stroke:#000000;stroke-width:0.264583px;stroke-linecap:butt;stroke-linejoin:miter;stroke-opacity:1" d="m 48.191812,63.85419 c 0.651258,-0.116892 1.302728,-0.233822 1.912474,-0.197671 0.609746,0.03615 1.177513,0.225407 1.623136,0.261646 0.445622,0.03624 0.768393,-0.08063 1.091494,-0.197611" id="path1033" inkscape:connector-curvature="0" inkscape:path-effect="#path-effect3710" inkscape:original-d="m 48.191812,63.85419 c 0.651204,-0.117195 1.302674,-0.234125 1.954409,-0.35079 0.567864,0.189111 1.135631,0.378367 1.703842,0.567947 0.322866,-0.117261 0.645637,-0.234125 0.968853,-0.350793"></path><path style="fill:none;stroke:#000000;stroke-width:0.264583px;stroke-linecap:butt;stroke-linejoin:miter;stroke-opacity:1" d="m 48.058177,64.255094 c 0.679013,0.09462 1.358324,0.189275 1.895729,0.372999 0.537406,0.183723 0.93257,0.456441 1.36158,0.495475 0.429009,0.03903 0.890807,-0.1557 1.35309,-0.350639" id="path1037" inkscape:connector-curvature="0" inkscape:path-effect="#path-effect3707" inkscape:original-d="m 48.058177,64.255094 c 0.679045,0.09439 1.358355,0.189051 2.037929,0.283975 0.395245,0.27269 0.790408,0.54541 1.186011,0.818512 0.462243,-0.195299 0.924041,-0.390032 1.386459,-0.584652"></path><ellipse ry="0.9921875" rx="1.5591518" cy="62.985493" cx="31.608253" id="path1041" style="opacity:1;fill:#ff7f2a;fill-opacity:1;stroke:#000000;stroke-width:0.264583;stroke-opacity:1"></ellipse><ellipse ry="1.1339285" rx="1.6772693" cy="62.630199" cx="66.532608" id="path1043" style="opacity:1;fill:#ff7f2a;fill-opacity:1;stroke:#000000;stroke-width:0.264583;stroke-opacity:1"></ellipse><path sodipodi:nodetypes="cc" inkscape:connector-curvature="0" id="path1047" d="m 58.331173,58.922246 c 2.077951,-6.618441 6.601261,-2.747641 6.425601,0.377976" style="fill:none;stroke:#000000;stroke-width:0.264583px;stroke-linecap:butt;stroke-linejoin:miter;stroke-opacity:1"></path><ellipse ry="1.3229166" rx="1.4646577" cy="44.748142" cx="58.491814" id="path1049" style="opacity:1;fill:#892ca0;fill-opacity:1;stroke:#000000;stroke-width:0.264583;stroke-opacity:1"></ellipse><ellipse style="opacity:1;fill:#0066ff;fill-opacity:1;stroke:#000000;stroke-width:0.264583;stroke-opacity:1" id="ellipse1051" cx="60.806915" cy="46.07106" rx="1.4646577" ry="1.3229166"></ellipse><ellipse ry="1.3229166" rx="1.4646577" cy="46.779766" cx="63.452751" id="ellipse1053" style="opacity:1;fill:#000000;fill-opacity:1;stroke:#000000;stroke-width:0.264583;stroke-opacity:1"></ellipse><ellipse style="opacity:1;fill:#892ca0;fill-opacity:1;stroke:#000000;stroke-width:0.264583;stroke-opacity:1" id="ellipse1055" cx="66.382072" cy="47.016003" rx="1.4646577" ry="1.3229166"></ellipse><ellipse ry="1.3229166" rx="1.4646577" cy="46.732521" cx="69.311386" id="ellipse1057" style="opacity:1;fill:#0066ff;fill-opacity:1;stroke:#000000;stroke-width:0.264583;stroke-opacity:1"></ellipse><ellipse style="opacity:1;fill:#000000;fill-opacity:1;stroke:#000000;stroke-width:0.264583;stroke-opacity:1" id="ellipse1059" cx="72.051712" cy="46.874264" rx="1.4646577" ry="1.3229166"></ellipse><ellipse ry="1.3229166" rx="1.4646577" cy="46.874264" cx="74.792038" id="ellipse1061" style="opacity:1;fill:#892ca0;fill-opacity:1;stroke:#000000;stroke-width:0.264583;stroke-opacity:1"></ellipse><path sodipodi:nodetypes="cccc" inkscape:connector-curvature="0" id="path1072" d="m 6.9467028,71.472352 c 3.4633812,-4.013363 6.5332982,-5.075753 9.4966522,-5.338916 2.587562,0.241498 3.737278,7.812493 0.897692,9.685642 C 12.775173,75.366396 8.8816958,74.305355 6.9467028,71.472352 Z" style="fill:#ffaaaa;stroke:#000000;stroke-width:0.264583px;stroke-linecap:butt;stroke-linejoin:miter;stroke-opacity:1"></path><path sodipodi:nodetypes="cccccccccc" inkscape:connector-curvature="0" id="path1074" d="m 8.3168658,69.960446 c -1.09983,-0.02008 -2.154989,-0.114618 -2.882069,-0.755952 l 1.984375,-2.220611 c 0.82532,-0.502644 1.552499,-0.661792 2.126118,-0.283482 0.219874,-0.766656 0.5014242,-1.512752 1.4646562,-2.031622 0.329386,0.775732 0.837096,1.016495 1.417413,1.039434 0.366526,-0.455861 1.280099,-0.802312 2.267855,-1.133927 1.19584,0.05206 1.225123,0.437416 0.661458,0.992188 l -0.992188,0.803198 c -2.476606,0.851375 -4.5774462,1.984574 -6.0476182,3.590774 z" style="fill:#008000;stroke:#000000;stroke-width:0.264583px;stroke-linecap:butt;stroke-linejoin:miter;stroke-opacity:1"></path><ellipse transform="rotate(-39.482121)" ry="0.94494045" rx="0.51971728" cy="61.297699" cx="-37.702091" id="path1078" style="opacity:1;fill:#ffcc00;fill-opacity:1;stroke:#000000;stroke-width:0.264583;stroke-opacity:1"></ellipse><ellipse style="opacity:1;fill:#ffcc00;fill-opacity:1;stroke:#000000;stroke-width:0.264583;stroke-opacity:1" id="ellipse1080" cx="-35.023205" cy="65.402252" rx="0.51971728" ry="0.94494045" transform="rotate(-39.482121)"></ellipse><ellipse transform="rotate(-39.482121)" ry="0.94494045" rx="0.51971728" cy="62.986969" cx="-32.604958" id="ellipse1082" style="opacity:1;fill:#ffcc00;fill-opacity:1;stroke:#000000;stroke-width:0.264583;stroke-opacity:1"></ellipse><path sodipodi:nodetypes="ccccc" inkscape:connector-curvature="0" id="path1084" d="m 21.953653,81.76491 c -2.094002,-0.294495 -3.618094,-1.063915 -4.960938,-1.984375 -0.699296,-2.761073 2.079877,-1.546753 3.82701,-1.511906 0.675014,-1.99727 1.36432,-3.842089 2.409598,-1.889882 -0.106002,1.476166 0.678062,2.062267 -1.27567,5.386163 z" style="fill:#000080;stroke:#000000;stroke-width:0.264583px;stroke-linecap:butt;stroke-linejoin:miter;stroke-opacity:1"></path><path sodipodi:nodetypes="ccccc" inkscape:connector-curvature="0" id="path1086" d="m 15.497023,86.066365 c -1.310497,-1.366703 0.744821,-1.260863 1.228423,-1.842643 0.08137,-0.896014 -0.201154,-2.025944 1.559153,-1.842632 0.929191,-0.330376 1.858382,1.762692 2.787573,4.819205 -2.120296,-0.27844 -4.746626,-0.36459 -5.575149,-1.13393 z" style="fill:#aa0000;stroke:#000000;stroke-width:0.264583px;stroke-linecap:butt;stroke-linejoin:miter;stroke-opacity:1"></path><path sodipodi:nodetypes="ccccc" inkscape:connector-curvature="0" id="path1088" d="m 30.840842,83.42388 c -4.425194,0.247405 -5.017747,-0.60023 -6.047621,-1.322917 -1.029122,-0.85184 0.96372,-1.309511 2.740329,-1.795386 -0.251113,-1.601491 -0.01054,-2.484363 1.370164,-1.700892 0.685474,1.129224 1.374294,2.218298 1.937128,4.819195 z" style="fill:#ff00ff;stroke:#000000;stroke-width:0.264583px;stroke-linecap:butt;stroke-linejoin:miter;stroke-opacity:1"></path><path style="fill:#000080;fill-opacity:1;stroke:#000000;stroke-width:0.264583px;stroke-linecap:butt;stroke-linejoin:miter;stroke-opacity:1" d="m 72.301214,80.183406 c 2.094,-0.294495 3.61809,-1.063915 4.96094,-1.984375 0.69929,-2.761073 -2.07988,-1.546753 -3.82701,-1.511906 -0.67502,-1.99727 -1.36432,-3.842089 -2.4096,-1.889882 0.106,1.476166 -0.67806,2.062267 1.27567,5.386163 z" id="path1090" inkscape:connector-curvature="0" sodipodi:nodetypes="ccccc"></path><path style="fill:#aa0000;fill-opacity:1;stroke:#000000;stroke-width:0.264583px;stroke-linecap:butt;stroke-linejoin:miter;stroke-opacity:1" d="m 77.687374,84.719119 c 1.3105,-1.366696 -0.74482,-1.260856 -1.22842,-1.842636 -0.0814,-0.89601 0.20115,-2.02594 -1.55915,-1.84263 -0.92919,-0.330374 -1.85838,1.76269 -2.78758,4.8192 2.1203,-0.278444 4.74663,-0.364594 5.57515,-1.133934 z" id="path1092" inkscape:connector-curvature="0" sodipodi:nodetypes="ccccc"></path><path style="fill:#ff00ff;stroke:#000000;stroke-width:0.264583px;stroke-linecap:butt;stroke-linejoin:miter;stroke-opacity:1" d="m 64.552694,83.112722 c 4.4252,0.247405 5.01775,-0.60023 6.04762,-1.322917 1.02913,-0.85184 -0.96372,-1.309511 -2.74032,-1.795386 0.25111,-1.601491 0.0105,-2.484363 -1.37017,-1.700892 -0.68547,1.129224 -1.37429,2.218298 -1.93713,4.819195 z" id="path1094" inkscape:connector-curvature="0" sodipodi:nodetypes="ccccc"></path><ellipse ry="2.03793" rx="1.9544084" cy="68.573982" cx="81.794861" id="path1100" style="opacity:1;fill:#6e9cfe;fill-opacity:1;stroke:#000000;stroke-width:0.264583;stroke-opacity:1"></ellipse><ellipse ry="2.4388344" rx="2.2383823" cy="71.447128" cx="84.250412" id="path1098" style="opacity:1;fill:url(#linearGradient3531);fill-opacity:1;stroke:#000000;stroke-width:0.264583;stroke-opacity:1"></ellipse><ellipse ry="2.80633" rx="2.8564429" cy="71.647583" cx="79.122162" id="path1096" style="opacity:1;fill:url(#linearGradient3513);fill-opacity:1;stroke:#000000;stroke-width:0.264583;stroke-opacity:1"></ellipse><path sodipodi:nodetypes="cccccc" inkscape:connector-curvature="0" id="path1105" d="m 78.637734,68.774441 -0.43431,-0.734989 1.1693,0.133633 c 0.31276,-0.198563 0.83452,0.02088 1.50339,0.534541 l -0.56794,0.434311 c -0.69715,0.228351 -1.13333,-0.19573 -1.67044,-0.367496 z" style="fill:#008000;fill-opacity:1;stroke:#000000;stroke-width:0.264583px;stroke-linecap:butt;stroke-linejoin:miter;stroke-opacity:1"></path><path sodipodi:nodetypes="ccccc" inkscape:connector-curvature="0" id="path1107" d="m 84.083354,69.075121 c -0.64056,-0.25052 -0.9726,-0.562745 -1.16931,-0.902036 0.021,0.291329 0.74718,0.003 1.16931,-0.26727 0.2177,0.378479 0.63068,0.70116 1.46998,0.902036 -0.66341,0.256134 -1.3216,0.01114 -1.46998,0.26727 z" style="fill:#008000;fill-opacity:1;stroke:#000000;stroke-width:0.264583px;stroke-linecap:butt;stroke-linejoin:miter;stroke-opacity:1"></path><path sodipodi:nodetypes="cccccc" inkscape:connector-curvature="0" id="path1109" d="m 80.942934,67.037189 c 0.28728,-0.497303 -0.20433,-0.772064 -0.50113,-1.102487 0.68317,0.120372 1.22108,-0.09821 1.63703,-0.601355 0.07,0.456585 0.49233,0.913171 1.80407,1.369756 -0.61479,0.0075 -2.01645,-0.348156 -1.60362,0.133635 -0.9538,-0.272082 -1.16965,-0.0522 -1.33635,0.200451 z" style="fill:#008000;fill-opacity:1;stroke:#000000;stroke-width:0.264583px;stroke-linecap:butt;stroke-linejoin:miter;stroke-opacity:1"></path><text id="text3762" y="91.653961" x="47.190342" style="font-style:normal;font-weight:normal;font-size:10.5833px;line-height:0.75;font-family:sans-serif;text-align:center;letter-spacing:0px;word-spacing:0px;text-anchor:middle;fill:#000000;fill-opacity:1;stroke:none;stroke-width:0.264583" xml:space="preserve"><tspan style="font-style:normal;font-variant:normal;font-weight:normal;font-stretch:normal;font-family:Dyuthi;-inkscape-font-specification:Dyuthi;text-align:center;text-anchor:middle;stroke-width:0.264583" y="91.653961" x="47.190342" id="tspan3760" sodipodi:role="line">Sofia Maria</tspan><tspan style="font-style:normal;font-variant:normal;font-weight:normal;font-stretch:normal;font-family:Dyuthi;-inkscape-font-specification:Dyuthi;text-align:center;text-anchor:middle;stroke-width:0.264583" y="100.22189" x="47.190342" sodipodi:role="line" id="tspan354">Pulseiras</tspan></text><path sodipodi:nodetypes="ccccc" inkscape:connector-curvature="0" id="path3768-9" d="m 51.507008,95.497138 c 0.79045,-0.471222 1.302066,-1.057282 1.724993,-1.67987 -0.04167,-1.323482 -0.996251,-0.337431 -1.679973,-0.03663 -0.494965,-0.764361 -0.978062,-1.459625 -1.165426,-0.433828 0.211172,0.629151 -0.03018,1.013976 1.120406,2.150328 z" style="fill:#ff00ff;fill-opacity:1;stroke:#000000;stroke-width:0.115677px;stroke-linecap:butt;stroke-linejoin:miter;stroke-opacity:1"></path><path sodipodi:nodetypes="ccccc" inkscape:connector-curvature="0" id="path3768-9-6" d="m 38.457533,86.905147 c 0.784606,-0.480891 1.288988,-1.073188 1.704239,-1.700922 -0.05791,-1.32287 -1.000319,-0.325174 -1.680296,-0.016 -0.504312,-0.758227 -0.995908,-1.447507 -1.170665,-0.419487 0.218881,0.626511 -0.01773,1.01427 1.146722,2.136411 z" style="fill:#ff00ff;fill-opacity:1;stroke:#000000;stroke-width:0.115677px;stroke-linecap:butt;stroke-linejoin:miter;stroke-opacity:1"></path><path sodipodi:nodetypes="ccccc" inkscape:connector-curvature="0" id="path3768-9-5" d="m 65.501656,86.749825 c 0.819103,-0.419442 1.367329,-0.971407 1.829397,-1.565525 0.04349,-1.323423 -0.972503,-0.400766 -1.674145,-0.144532 -0.444813,-0.794594 -0.882223,-1.519471 -1.135132,-0.507837 0.170298,0.641422 -0.09529,1.009939 0.97988,2.217894 z" style="fill:#ff00ff;fill-opacity:1;stroke:#000000;stroke-width:0.115677px;stroke-linecap:butt;stroke-linejoin:miter;stroke-opacity:1"></path></g></g></svg>